# Blender 4.0.1
# www.blender.org
mtllib baublend.mtl
o Cube
v 2.000000 2.000000 -5.000000
v 2.000000 -2.000000 -5.000000
v 2.000000 2.000000 5.000000
v 2.000000 -2.000000 5.000000
v -2.000000 2.000000 -5.000000
v -2.000000 -2.000000 -5.000000
v -2.000000 2.000000 5.000000
v -2.000000 -2.000000 5.000000
v -1.549189 -0.762678 4.510820
v 1.577548 -0.762678 4.570333
v 1.615660 -0.762678 -4.500901
v -1.569763 -0.762678 -4.608197
vn -0.0147 0.1590 0.9872
vn -0.0000 -0.0000 1.0000
vn -1.0000 -0.0000 -0.0000
vn -0.0000 -1.0000 -0.0000
vn 1.0000 -0.0000 -0.0000
vn -0.0000 -0.0000 -1.0000
vn -0.0000 1.0000 -0.0000
vn 0.0082 0.1641 -0.9864
vn 0.9875 0.1575 -0.0011
vn -0.9895 0.1445 -0.0020
vt 0.625000 0.500000
vt 0.875000 0.500000
vt 0.848110 0.509795
vt 0.649021 0.512477
vt 0.375000 0.750000
vt 0.625000 0.750000
vt 0.625000 1.000000
vt 0.375000 1.000000
vt 0.375000 0.000000
vt 0.625000 0.000000
vt 0.625000 0.250000
vt 0.375000 0.250000
vt 0.125000 0.500000
vt 0.375000 0.500000
vt 0.125000 0.750000
vt 0.846824 0.737771
vt 0.651403 0.739258
vt 0.875000 0.750000
s 0
usemtl Material
f 1/1/1 5/2/1 12/3/1 11/4/1
f 4/5/2 3/6/2 7/7/2 8/8/2
f 8/9/3 7/10/3 5/11/3 6/12/3
f 6/13/4 2/14/4 4/5/4 8/15/4
f 2/14/5 1/1/5 3/6/5 4/5/5
f 6/12/6 5/11/6 1/1/6 2/14/6
f 11/4/7 12/3/7 9/16/7 10/17/7
f 10/17/8 9/16/8 7/18/8 3/6/8
f 7/18/9 9/16/9 12/3/9 5/2/9
f 3/6/10 1/1/10 11/4/10 10/17/10
o Cilindro
v 1.864176 4.718109 4.638428
v 1.751461 4.858474 -4.899448
v 1.616759 4.953441 4.644815
v 1.504044 5.093805 -4.893061
v 1.307787 5.122664 4.650957
v 1.195073 5.263029 -4.886919
v 0.949136 5.219277 4.656617
v 0.836421 5.359642 -4.881259
v 0.554587 5.239567 4.661578
v 0.441872 5.379931 -4.876298
v 0.139302 5.182753 4.665649
v 0.026587 5.323117 -4.872227
v -0.280759 5.051019 4.668675
v -0.393473 5.191384 -4.869201
v -0.689453 4.849428 4.670538
v -0.802168 4.989792 -4.867338
v -1.071075 4.585726 4.671167
v -1.183790 4.726091 -4.866709
v -1.410959 4.270048 4.670538
v -1.523673 4.410413 -4.867338
v -1.696043 3.914525 4.668675
v -1.808758 4.054889 -4.869201
v -1.915372 3.532819 4.665649
v -2.028087 3.673183 -4.872227
v -2.060518 3.139599 4.661578
v -2.173233 3.279963 -4.876298
v -2.125902 2.749976 4.656617
v -2.238616 2.890341 -4.881259
v -2.109011 2.378924 4.650957
v -2.221726 2.519289 -4.886919
v -2.010495 2.040701 4.644815
v -2.123210 2.181066 -4.893061
v -1.834140 1.748306 4.638428
v -1.946855 1.888670 -4.899448
vn 0.6892 0.7245 0.0025
vn 0.4805 0.8770 0.0072
vn 0.2603 0.9655 0.0111
vn 0.0515 0.9986 0.0141
vn -0.1354 0.9907 0.0162
vn -0.2991 0.9541 0.0176
vn -0.4422 0.8967 0.0184
vn -0.5684 0.8226 0.0188
vn -0.6804 0.7326 0.0188
vn -0.7801 0.6254 0.0184
vn -0.8670 0.4980 0.0176
vn -0.9381 0.3461 0.0162
vn -0.9861 0.1653 0.0141
vn -0.9989 -0.0456 0.0111
vn -0.9600 -0.2798 0.0072
vn -0.8563 -0.5165 0.0025
vn 0.0118 -0.0147 0.9998
vn -0.0118 0.0147 -0.9998
vt 0.750000 0.500000
vt 0.750000 1.000000
vt 0.718750 1.000000
vt 0.718750 0.500000
vt 0.687500 1.000000
vt 0.687500 0.500000
vt 0.656250 1.000000
vt 0.656250 0.500000
vt 0.625000 1.000000
vt 0.625000 0.500000
vt 0.593750 1.000000
vt 0.593750 0.500000
vt 0.562500 1.000000
vt 0.562500 0.500000
vt 0.531250 1.000000
vt 0.531250 0.500000
vt 0.500000 1.000000
vt 0.500000 0.500000
vt 0.468750 1.000000
vt 0.468750 0.500000
vt 0.437500 1.000000
vt 0.437500 0.500000
vt 0.406250 1.000000
vt 0.406250 0.500000
vt 0.375000 1.000000
vt 0.375000 0.500000
vt 0.343750 1.000000
vt 0.343750 0.500000
vt 0.312500 1.000000
vt 0.312500 0.500000
vt 0.281250 1.000000
vt 0.281250 0.500000
vt 0.250000 1.000000
vt 0.250000 0.500000
vt 0.510000 0.250000
vt 0.990000 0.250000
vt 0.985388 0.203178
vt 0.971731 0.158156
vt 0.949553 0.116663
vt 0.919706 0.080294
vt 0.883337 0.050447
vt 0.841844 0.028269
vt 0.796822 0.014612
vt 0.750000 0.010000
vt 0.703178 0.014612
vt 0.658156 0.028269
vt 0.616663 0.050447
vt 0.580294 0.080294
vt 0.550447 0.116663
vt 0.528269 0.158156
vt 0.514612 0.203178
vt 0.490000 0.250000
vt 0.010000 0.250000
vt 0.014612 0.203178
vt 0.028269 0.158156
vt 0.050447 0.116663
vt 0.080294 0.080294
vt 0.116663 0.050447
vt 0.158156 0.028269
vt 0.203178 0.014612
vt 0.250000 0.010000
vt 0.296822 0.014612
vt 0.341844 0.028269
vt 0.383337 0.050447
vt 0.419706 0.080294
vt 0.449553 0.116663
vt 0.471731 0.158156
vt 0.485388 0.203178
s 0
usemtl Materiais
f 13/19/11 14/20/11 16/21/11 15/22/11
f 15/22/12 16/21/12 18/23/12 17/24/12
f 17/24/13 18/23/13 20/25/13 19/26/13
f 19/26/14 20/25/14 22/27/14 21/28/14
f 21/28/15 22/27/15 24/29/15 23/30/15
f 23/30/16 24/29/16 26/31/16 25/32/16
f 25/32/17 26/31/17 28/33/17 27/34/17
f 27/34/18 28/33/18 30/35/18 29/36/18
f 29/36/19 30/35/19 32/37/19 31/38/19
f 31/38/20 32/37/20 34/39/20 33/40/20
f 33/40/21 34/39/21 36/41/21 35/42/21
f 35/42/22 36/41/22 38/43/22 37/44/22
f 37/44/23 38/43/23 40/45/23 39/46/23
f 39/46/24 40/45/24 42/47/24 41/48/24
f 41/48/25 42/47/25 44/49/25 43/50/25
f 43/50/26 44/49/26 46/51/26 45/52/26
f 45/53/27 13/54/27 15/55/27 17/56/27 19/57/27 21/58/27 23/59/27 25/60/27 27/61/27 29/62/27 31/63/27 33/64/27 35/65/27 37/66/27 39/67/27 41/68/27 43/69/27
f 14/70/28 46/71/28 44/72/28 42/73/28 40/74/28 38/75/28 36/76/28 34/77/28 32/78/28 30/79/28 28/80/28 26/81/28 24/82/28 22/83/28 20/84/28 18/85/28 16/86/28
